<svg width="401" height="434" viewBox="0 0 401 434" fill="none" xmlns="http://www.w3.org/2000/svg">
<path d="M266.952 0.0721761V0H0.243103V433.4H266.952V433.345C340.571 433.345 400.243 373.673 400.243 300.054V133.364C400.243 59.7446 340.571 0.0721761 266.952 0.0721761ZM328.028 300.054C328.028 333.795 300.693 361.148 266.952 361.148H72.4767V72.3775H270.623C302.133 74.2489 327.218 100 328.028 131.78V300.054Z" fill="#F68B00"/>
<path d="M286.893 231.152H214.66V303.385H286.893V231.152Z" fill="#F68B00"/>
<path d="M299.163 133.362V173.365H173.609V332.282H101.376V101.168H267.779C285.198 101.6 299.163 115.834 299.163 133.362Z" fill="#F68B00"/>
</svg>
